# xmcd
#
# Track frame offsets:
#	150
#	12047
#	36440
#	53764
#	66812
#	76832
#	88975
#	102577
#	115197
#	129087
#	138537
#	151385
#	163157
#	175427
#	190642
#	205025
#	218477
#	235802
#	246387
#	260490
#	273910
#	286452
#	303047
#	315422
#	323412
#
# Disc length: 4444 seconds
#
# Revision: 1
# Processed by: cddbd v1.5.2PL0 Copyright (c) Steve Scherf et al.
# Submitted via: audiograbber 1.83.01
#
DISCID=55115a19
DTITLE=Cristy Lane - Salute To The VFW
DYEAR=1900
DGENRE=Country
TTITLE0=Where I Belong
TTITLE1=Danny Boy
TTITLE2=You're Healing My Heart
TTITLE3=Harbor Lights
TTITLE4=Lovbe Letters In The Sand
TTITLE5=Always
TTITLE6=Smoke Gets In Your Eyes
TTITLE7=He's Got The Whole World In His Hands
TTITLE8=Footprints In The Sand
TTITLE9=Amazing Grace
TTITLE10=Just As I Am
TTITLE11=Just A Closer Walk With Thee
TTITLE12=Try A Little Kindness
TTITLE13=Everything Is Beautiful
TTITLE14=Good Ole Days
TTITLE15=Thank God For You And My Life
TTITLE16=Let's Write A Love Song
TTITLE17=You Make It Feel Like Sunday
TTITLE18=Rio Grande
TTITLE19=Miracle Maker
TTITLE20=Onward Christian Soldiers
TTITLE21=America The Beautiful
TTITLE22=God Bless America
TTITLE23=May The Good Lord Bless And Keep You
TTITLE24=Star Spangled Banner
EXTD=
EXTT0=
EXTT1=
EXTT2=
EXTT3=
EXTT4=
EXTT5=
EXTT6=
EXTT7=
EXTT8=
EXTT9=
EXTT10=
EXTT11=
EXTT12=
EXTT13=
EXTT14=
EXTT15=
EXTT16=
EXTT17=
EXTT18=
EXTT19=
EXTT20=
EXTT21=
EXTT22=
EXTT23=
EXTT24=
PLAYORDER=
